<?xml version="1.0" encoding="utf-8" ?>
<svg xmlns="http://www.w3.org/2000/svg" xmlns:xlink="http://www.w3.org/1999/xlink" width="1024" height="512">
	<path fill="#6669AA" transform="scale(0.5 0.5)" d="M-0 -0L2048 0L2048 1024L-0 1024L0 -0Z"/>
	<path fill="#282083" transform="scale(0.5 0.5)" d="M768.585 432.968L779.633 432.899L786.666 449.173L777.78 450.652C773.869 448.294 770.482 437.404 768.585 432.968Z"/>
	<path fill="#282083" transform="scale(0.5 0.5)" d="M778.255 454.337L788.732 453.021C792.638 459.053 796.857 466.383 802.633 470.746L794.504 474.085C788.346 468.174 783.137 461.308 778.255 454.337Z"/>
	<path fill="#FCFCFD" transform="scale(0.5 0.5)" d="M542.285 372.342C544.728 375.902 546.653 382.982 549.607 385.884C552.59 388.814 560.932 391.567 564.938 393.303C561.165 395.364 553.646 397.557 550.782 400.221C547.385 403.381 544.682 411.032 542.58 415.252C539.431 410.697 538.021 405.162 533.924 401.256L533.5 400.858C529.901 397.416 524.674 395.829 520.108 394.015C524.285 391.999 530.479 389.797 533.796 386.598C537.366 383.156 539.943 376.766 542.285 372.342Z"/>
	<path fill="#1AC4CA" transform="scale(0.5 0.5)" d="M444.201 440.5C445.002 440.228 445.693 439.981 446.544 439.907C460.17 438.723 474.822 439.707 488.546 439.691C492.293 439.687 500.714 438.741 504 440.246C504.719 440.576 505.867 441.967 506.5 442.551C506.889 446.127 506.86 446.595 504.737 449.5C500.642 451.228 451.984 451.043 446 450.1C443.642 449.728 443.024 448.3 441.8 446.5C441.942 443.118 441.94 443.007 444.201 440.5Z"/>
	<path fill="#FCFCFD" transform="scale(0.5 0.5)" d="M1526.14 580.598C1532.36 592.564 1536.67 597.369 1548.82 603.246C1536.4 608.644 1531.96 613.986 1526.62 626.142L1522.74 618.054C1518.38 609.667 1512.31 606.643 1503.7 603.946C1505.32 602.381 1508.59 601.374 1510.64 600.341C1519.02 596.139 1522.46 588.717 1526.14 580.598Z"/>
	<path fill="#1AC4CA" transform="scale(0.5 0.5)" d="M1391.07 469.5C1396.58 468.034 1404.56 468.971 1410.4 468.963L1453.47 468.941C1457.96 468.941 1465.15 467.897 1468.87 470C1468.95 473.568 1469.77 476.045 1467.5 478.889L1407.6 478.804C1403.69 478.799 1394.96 479.952 1391.5 478.784C1390.91 478.586 1389.51 476.988 1388.97 476.5C1388.94 472.96 1388.67 472.317 1391.07 469.5Z"/>
	<path fill="#1AC4CA" transform="scale(0.5 0.5)" d="M1485.49 429.5C1489.86 427.32 1500.21 428.728 1505.55 428.741L1570 429.06C1571.79 431.403 1570.92 434.592 1570.8 437.5L1569.61 437.986C1564.34 439.359 1555.33 438.167 1549.75 438.165C1540.71 438.161 1489.56 439.931 1485.54 437.392L1485.49 429.5Z"/>
	<path fill="#1AC4CA" transform="scale(0.5 0.5)" d="M399.019 351.5C405.619 349.196 417.24 350.645 424.465 350.652L462.717 350.752C469.269 350.781 476.836 350.062 483.181 351.5C485.795 354.163 485.704 354.354 485.713 357.869L482.834 360.5L480.906 360.765C459.9 361.816 438.214 360.658 417.146 360.553C413.54 360.536 402.673 361.601 400 360.182C399.202 359.758 398.204 358.568 397.5 357.935C397.046 354.47 397.097 354.428 399.019 351.5Z"/>
	<path fill="#1AC4CA" transform="scale(0.5 0.5)" d="M1445.31 382.5C1458.35 381.756 1531.58 381.087 1537.35 383.5C1537.67 386.344 1537.42 388.698 1536.98 391.5L1535.97 391.784C1529.81 392.902 1521.7 391.974 1515.28 391.99L1461.63 391.998C1457.65 391.984 1447.56 393.099 1444.5 390.791C1444.15 387.688 1443.72 385.336 1445.31 382.5Z"/>
	<path fill="#F6B63B" transform="scale(0.5 0.5)" d="M180.755 766.564L180.049 766.559C176.873 766.223 173.944 764.17 172.265 761.5C170.445 758.605 169.836 754.708 170.819 751.462C171.88 747.957 174.114 745.559 177.403 743.972C182.02 741.743 347.784 742.495 350.67 743.702C353.715 744.976 356.25 747.551 357.416 750.643C358.476 753.45 358.223 756.76 356.872 759.415C354.636 763.808 351.631 765.198 347.079 766.596C335.664 764.558 321.812 766.021 310.158 766.03L230.925 766.129L196.065 766.125C191.552 766.127 184.992 765.33 180.755 766.564Z"/>
	<path fill="#D75B12" transform="scale(0.5 0.5)" d="M180.755 766.564C184.992 765.33 191.552 766.127 196.065 766.125L230.925 766.129L310.158 766.03C321.812 766.021 335.664 764.558 347.079 766.596L335.317 859.419C334.488 867.132 335.04 877.867 328.5 882.962C324.854 885.803 292.032 884.133 284.827 884.032L286.592 882.891C289.009 881.683 290.567 880.925 292.578 879.011C297.178 874.633 300.781 869.775 303.059 863.792C307.77 851.418 308.076 836.342 309.792 823.258C311.406 810.959 314.171 797.927 314.263 785.5C314.292 781.507 314.415 779.473 311.45 776.623C310.568 775.776 308.657 774.588 307.5 774.291C305.572 773.797 301.767 774.324 299.625 774.334L280.277 774.386L182.185 774.482L180.755 766.564Z"/>
	<path fill="#F5992C" transform="scale(0.5 0.5)" d="M182.185 774.482L280.277 774.386L299.625 774.334C301.767 774.324 305.572 773.797 307.5 774.291C308.657 774.588 310.568 775.776 311.45 776.623C314.415 779.473 314.292 781.507 314.263 785.5C314.171 797.927 311.406 810.959 309.792 823.258C308.076 836.342 307.77 851.418 303.059 863.792C300.781 869.775 297.178 874.633 292.578 879.011C290.567 880.925 289.009 881.683 286.592 882.891L284.827 884.032C272.156 885.169 258.413 884.247 245.625 884.302C234.085 884.352 221.358 885.557 210 884.098C207.752 883.809 205.786 882.69 204.01 881.323C198.731 877.261 198.601 870.952 197.865 864.851L182.185 774.482Z"/>
	<path fill="#FCFCFD" transform="scale(0.5 0.5)" d="M221.556 829.5C226.692 828.134 234.194 829.024 239.59 829.03L280 829.114C282.011 830.621 282.211 830.566 282.683 833L280.5 835.948C266.665 837.383 251.49 836.049 237.5 836.157C233.326 836.189 226.465 837.358 222.696 836.47C222.106 836.331 220.821 835.195 220.255 834.811C219.881 831.939 219.944 831.918 221.556 829.5Z"/>
	<path fill="#FCFCFD" transform="scale(0.5 0.5)" d="M220.945 796.5C221.431 796.35 221.608 796.277 222.174 796.213C236.214 794.635 251.995 796.017 266.18 796.045C269.602 796.052 276.959 795.089 280 796.075C280.616 796.275 281.735 797.377 282.304 797.804C282.651 800.848 282.375 800.813 280.5 803.293C275.643 804.425 268.983 803.513 263.869 803.503L222.5 803.373C220.221 801.7 219.999 801.72 219.369 799L220.945 796.5Z"/>
	<path fill="#FCFCFD" transform="scale(0.5 0.5)" d="M221.579 812.5L267.051 812.192C270.124 812.189 277.308 811.243 280 812.183C280.646 812.408 281.91 813.764 282.5 814.252L282.743 817L280.5 819.404C275.73 820.667 268.575 819.737 263.572 819.732L222.5 819.664C220.218 817.856 220.225 817.873 219.761 815L221.579 812.5Z"/>
	<path fill="#04617C" transform="scale(0.5 0.5)" d="M1078.92 842.531L1111.8 842.561C1109.46 851.645 1109.42 860.387 1114.26 868.74C1116.81 873.134 1119.99 876.042 1124.23 878.769C1139.08 881.061 1155.4 879.63 1170.42 879.524L1248.92 879.203L1325.21 879.231C1336.73 879.183 1349.55 880.2 1360.92 878.532C1373.81 876.642 1385.43 871.687 1395.92 863.978C1403.29 858.561 1408.97 851.8 1414.04 844.282C1427.16 851.079 1439.86 857.021 1453.96 861.564C1485.95 871.87 1519.91 875.784 1553.36 876.685C1596.5 877.848 1641.25 873.92 1682.58 860.833L1701.67 854.429C1717.13 857.236 1733.21 857.086 1748.9 858.042L1853.85 865.797C1878.88 868.11 1908.15 869.557 1931.73 878.5L1933.84 881C1933.24 881.729 1932.22 883.346 1931.5 883.856C1926.31 887.51 1915.17 888.601 1908.88 889.632L1849.37 897.104L1647.62 909.395L1409.56 916.879L942.383 919.256L690.571 916.7L460.091 910.4L249.938 901.081L169.625 894.213C153.56 892.36 134.161 891.096 119.5 883.93L118.114 882C120.936 877.219 125.975 876.312 131 875.022C144.829 871.471 159.057 869.598 173.226 868.023C181.248 867.131 190.046 866.789 197.865 864.851C198.601 870.952 198.731 877.261 204.01 881.323C205.786 882.69 207.752 883.809 210 884.098C221.358 885.557 234.085 884.352 245.625 884.302C258.413 884.247 272.156 885.169 284.827 884.032C292.032 884.133 324.854 885.803 328.5 882.962C335.04 877.867 334.488 867.132 335.317 859.419L423.254 854.331C426.811 860.407 430.812 865.913 436.451 870.225C444.588 876.448 452.472 879.764 462.715 880.518C476.892 881.563 491.755 880.601 505.986 880.505L582.29 880.306L837.295 879.936L979.213 879.852L1020.21 879.755C1027.53 879.726 1035.42 880.302 1042.64 879.184C1053.6 877.487 1070.49 867.647 1076.74 858.474C1080.38 853.138 1080.05 848.586 1078.92 842.531Z"/>
	<path fill="#11156D" transform="scale(0.5 0.5)" d="M778.398 428.358L777.664 428.517C774.241 429.235 770.97 429.063 767.5 428.883C763.384 424.301 762.24 409.555 761.347 403.324C761.057 401.305 760.818 397.596 759.83 395.821C758.932 394.207 755.823 392.04 754.336 390.613C750.184 386.628 746.107 382.633 742.692 377.978C740.496 374.984 737.717 371.3 736.501 367.781C732.375 355.835 732.256 340.775 730.778 328.24C729.841 320.298 727.629 310.541 728.237 302.6C728.69 296.679 731.605 291.608 736.146 287.855C744.477 280.969 758.346 276.555 769 275.191C772.699 274.718 781.305 275.176 784.277 273.287C785.39 272.579 787.088 269.658 787.984 268.5L782.579 249.11C777.092 226.151 772.668 202.547 770.897 179C770.066 167.958 769.456 156.773 770.851 145.747C771.282 142.339 771.621 136.425 773.371 133.648L773.774 133.05C816.006 132.66 857.365 151.22 892.8 173.075L910.055 184.77C911.496 185.815 914.871 189.028 916.419 189.466C916.933 189.611 921.922 187.381 923 187.015L940.912 181.694C961.076 176.42 981.992 173.494 1002.76 172.062C1035.75 169.787 1070.36 172.376 1102.76 178.876C1113.91 181.113 1124.93 184.067 1135.82 187.326C1139.33 188.375 1147.47 192.038 1150.72 191.812C1151.19 191.78 1186.21 169.087 1190.35 166.899C1221.07 150.661 1258.85 135.845 1293.74 133.373C1299.82 169.939 1298.55 210.826 1291.37 247.152C1289.84 254.884 1288.05 262.719 1285.82 270.276C1284.81 273.691 1280.26 283.637 1280.57 286.54C1280.77 288.476 1285.48 294.735 1286.59 297.032C1289.91 303.909 1292.7 311.28 1294.77 318.631C1302.03 319.614 1310.93 320.156 1315.77 326.388L1316.93 328L1317.28 328.476C1320.13 332.46 1319.4 339.646 1318.52 344.269C1317.51 349.597 1315.34 352.793 1310.86 355.814C1307.23 358.262 1303.33 356.75 1299.29 357.168C1298.87 364.624 1299.28 372.161 1298.61 379.586C1296.93 398.378 1291.92 417.854 1282.93 434.5C1279.81 440.275 1276.25 445.794 1272.25 450.999C1271.21 452.364 1266.38 457.479 1266.22 458.491C1265.77 461.395 1266.95 466.51 1267.29 469.531C1270.66 499.314 1286.5 527.201 1306.14 549.328C1320.21 565.172 1336.98 577.972 1351.72 593.093C1403.7 646.407 1436.95 709.502 1432.74 785.684L1432.62 787.594C1508.26 818.519 1604.85 814.152 1679.71 782.7C1725.22 763.578 1759.97 731.804 1778.68 685.625C1792.9 650.555 1789.84 610.742 1783.8 574.187C1781.31 559.166 1776.14 542.389 1780.5 527.347C1783.89 515.644 1791.16 504.82 1801.95 498.818C1811.69 493.4 1824.82 492.108 1835.5 495.4C1850.84 500.126 1863.07 512.995 1870.19 526.969C1876.19 538.736 1879.34 552.498 1881.18 565.498C1886.47 602.78 1881.38 642.504 1869.68 678.113C1846.91 747.362 1799.47 807.617 1733.76 840.713L1701.67 854.429L1682.58 860.833C1641.25 873.92 1596.5 877.848 1553.36 876.685C1519.91 875.784 1485.95 871.87 1453.96 861.564C1439.86 857.021 1427.16 851.079 1414.04 844.282C1408.97 851.8 1403.29 858.561 1395.92 863.978C1385.43 871.687 1373.81 876.642 1360.92 878.532C1349.55 880.2 1336.73 879.183 1325.21 879.231L1248.92 879.203L1170.42 879.524C1155.4 879.63 1139.08 881.061 1124.23 878.769C1119.99 876.042 1116.81 873.134 1114.26 868.74C1109.42 860.387 1109.46 851.645 1111.8 842.561L1078.92 842.531C1080.05 848.586 1080.38 853.138 1076.74 858.474C1070.49 867.647 1053.6 877.487 1042.64 879.184C1035.42 880.302 1027.53 879.726 1020.21 879.755L979.213 879.852L837.295 879.936L582.29 880.306L505.986 880.505C491.755 880.601 476.892 881.563 462.715 880.518C452.472 879.764 444.588 876.448 436.451 870.225C430.812 865.913 426.811 860.407 423.254 854.331L423 853.733C418.018 841.77 414.827 829.013 410.765 816.713L379.932 720.832L348.696 625.205L335.715 584C333.598 577.188 330.756 570.273 329.132 563.349C328.094 558.928 328.135 553.817 329.942 549.605C333.023 542.424 338.924 538.06 345.984 535.277C350.524 533.488 356.376 534.276 361.183 534.301L385.459 534.248L510.376 534.624L721.278 534.353C726.971 534.52 732.7 535.319 737.89 537.742C744.541 540.847 750.142 546.177 753.743 552.558C760.589 564.691 764.388 581.54 768.888 594.823L802.024 692.094C808.243 688.244 814.934 684.452 820.5 679.678C843.163 660.239 859.28 632.464 873.245 606.493C878.943 595.897 884.233 584.206 891.489 574.59C894.604 570.462 895.972 569.614 901 568.916C903.193 567.195 903.909 563.354 904.804 560.778L912.279 540.432C868.527 529.618 828.77 508.14 795.991 477.289C775.858 486.169 756.445 494.867 738.5 507.753L736.924 506C738.142 503.016 744.679 499.53 747.456 497.831C762.54 488.606 778.438 481.359 794.504 474.085L802.633 470.746C796.857 466.383 792.638 459.053 788.732 453.021L778.255 454.337C759.671 457.304 737.179 462.486 720.404 471.231L719.5 471.707L717.5 471.07L717.256 469.5C722.664 466.178 729.307 464.047 735.296 461.965C749.187 457.137 763.4 453.665 777.78 450.652L786.666 449.173L779.633 432.899L768.585 432.968C757.299 432.848 745.925 432.7 734.799 434.786C730.391 435.612 721.347 438.96 717.331 437.707L717.5 435.861C729.614 430.288 748.459 429.647 761.502 429.744C767.076 429.785 773.402 430.71 778.843 429.405L779.508 429.236L778.398 428.358Z"/>
	<path fill="#7F79F0" transform="scale(0.5 0.5)" d="M1806.42 607.289L1807.11 622.038C1804.01 623.473 1801.37 623.65 1797.99 623.78L1797.01 608.789C1798.2 610.652 1798.6 612.136 1798.96 614.273L1799.07 615C1800.65 615.008 1802.41 614.305 1804.01 614.005L1804.14 612.422C1805.54 611.119 1805.89 609.072 1806.42 607.289Z"/>
	<path fill="#885BDF" transform="scale(0.5 0.5)" d="M1807.11 622.038C1806.88 626.884 1806.99 639.896 1803.22 643.097C1802.22 643.945 1801.72 643.587 1800.49 643.5L1797.99 623.78C1801.37 623.65 1804.01 623.473 1807.11 622.038Z"/>
	<path fill="#AC9CFA" transform="scale(0.5 0.5)" d="M1790.29 565.311C1793.59 567.639 1796.65 569.664 1800.41 571.176L1801.18 572.018L1806.42 607.289C1805.89 609.072 1805.54 611.119 1804.14 612.422L1804.01 614.005C1802.41 614.305 1800.65 615.008 1799.07 615L1798.96 614.273C1798.6 612.136 1798.2 610.652 1797.01 608.789L1790.29 565.311Z"/>
	<path fill="#3FE0D9" transform="scale(0.5 0.5)" d="M767.283 339.494C765.188 338.673 763.397 338.346 762.016 336.5C761.902 327.943 761.127 317.344 766.019 309.827C771.723 301.061 786.179 297.593 795.887 295.508C793.087 298.508 789.988 301.468 787.646 304.842C774.041 314.884 773.448 325.442 767.283 339.494Z"/>
	<path fill="#FCFCFD" transform="scale(0.5 0.5)" d="M856.223 845.347L854.343 838.877L855.109 837.5L987.053 838.067L942.739 841.609C938.469 841.828 933.794 842.434 929.573 841.738C924.303 840.869 918.965 843.139 913.36 841.728C909.575 840.776 906.49 842.472 902.986 842.653L874.071 843.366C869.051 843.481 863.203 842.845 858.53 844.914L856.223 845.347Z"/>
	<path fill="#F1709D" transform="scale(0.5 0.5)" d="M778.398 428.358C776.137 421.541 772.391 412.535 772.381 405.344L774.275 405.936C800.845 421.341 826.366 431.282 857.542 430.24C853.243 431.446 847.928 431.064 843.42 431.228C836.84 431.467 830.076 432.143 823.509 431.809C810.08 431.124 795.458 428.185 782.061 430.06L779.508 429.236L778.398 428.358Z"/>
	<path fill="#C658B8" transform="scale(0.5 0.5)" d="M778.398 428.358C776.137 421.541 772.391 412.535 772.381 405.344L774.275 405.936C775.495 410.258 778.758 413.191 780.919 417C783.01 420.685 784.449 424.842 786.5 428.625L782.061 430.06L779.508 429.236L778.398 428.358Z"/>
	<path fill="#FCFCFD" transform="scale(0.5 0.5)" d="M1790.29 565.311C1788.66 558.282 1786.82 550.812 1786.45 543.592C1785.88 532.451 1788.73 520.092 1796.5 511.815C1804.69 503.088 1812.89 501.122 1824.36 500.751C1810.6 509.024 1801.43 516.72 1797.61 533.124C1794.71 545.589 1798.3 558.898 1800.41 571.176C1796.65 569.664 1793.59 567.639 1790.29 565.311Z"/>
	<path fill="#6669AA" transform="scale(0.5 0.5)" d="M1078.92 842.531C1076.45 837.343 1073.33 833.253 1067.73 831.318C1056.02 827.275 1042.22 829.065 1030 829.252L1061.97 820.807C1064.31 820.156 1070.11 817.973 1072.41 818.369C1073.86 818.617 1077.42 821.419 1078.83 822.266L1097.22 832.418C1102.07 834.965 1107.05 836.759 1111.96 839.101C1112.05 840.339 1112.02 841.338 1111.8 842.561L1078.92 842.531Z"/>
	<path fill="#885BDF" transform="scale(0.5 0.5)" d="M893.679 586.879C894.052 592.08 891.631 597.162 889.931 601.984C880.736 628.066 865.153 654.306 847.094 675.156C835.4 688.658 822.653 697.751 807.325 706.475L805.16 700.5C808.026 697.74 812.533 696.269 815.974 694.143C821.269 690.872 826.043 686.862 830.58 682.618C858.701 656.317 875.994 620.395 893.679 586.879Z"/>
	<path fill="#C42A68" transform="scale(0.5 0.5)" d="M1838.93 504.168C1857.85 516.002 1866.92 532.152 1871.85 553.601C1872.5 556.436 1874.36 562.359 1873.82 564.947C1873.47 566.575 1870.68 570.041 1869.72 571.574L1860.68 584.396C1857.56 555.523 1851.93 530.336 1838.93 504.168Z"/>
	<path fill="#885BDF" transform="scale(0.5 0.5)" d="M831.184 264.456C848.17 258.716 863.202 254.18 881.449 256.059C884.705 258.284 886.873 259.965 888.714 263.5C889.118 266.985 889.635 270.238 887.286 273.194L884.5 276.197C877.186 276.764 868.973 274.817 861.637 274.059C848.603 272.713 835.265 272.015 822.174 272.817C825.381 270.381 828.265 267.24 831.184 264.456Z"/>
	<path fill="#F1709D" transform="scale(0.5 0.5)" d="M1060.93 252.148C1080.15 251.253 1100.77 260.647 1116.23 271.565L1100.75 271.359L1069.67 273.635C1065.29 274.161 1054.98 277.342 1051.25 276.089C1050.43 275.815 1050.57 276.005 1050.27 275.37C1048.83 272.306 1048.18 265.962 1049.42 262.78C1051.74 256.822 1055.26 254.69 1060.93 252.148Z"/>
	<path fill="#F1FAFA" transform="scale(0.5 0.5)" d="M987.053 838.067L1039.79 837.864C1046.59 837.884 1054.99 837 1061.63 838.164C1064.22 838.618 1067.16 839.892 1069.04 841.794C1070.04 842.801 1070.52 843.779 1070.88 845.125L1068.5 845.535L858.53 844.914C863.203 842.845 869.051 843.481 874.071 843.366L902.986 842.653C906.49 842.472 909.575 840.776 913.36 841.728C918.965 843.139 924.303 840.869 929.573 841.738C933.794 842.434 938.469 841.828 942.739 841.609L987.053 838.067Z"/>
	<path fill="#F1709D" transform="scale(0.5 0.5)" d="M1195.63 364.777C1198.23 385.109 1191.38 416.48 1179.99 433.578L1179.67 433.994L1097.5 438.586C1101.58 437.565 1105.71 437.653 1108.74 434.368L1109.24 433.806C1110.07 433.019 1119.26 432.219 1120.94 431.87C1129.57 430.083 1138.12 427.257 1145.97 423.238C1170.77 410.542 1187.2 391.178 1195.63 364.777Z"/>
	<path fill="#282083" transform="scale(0.5 0.5)" d="M791.95 142.338C831.984 148.81 871.688 168.762 904.478 192.159C903.333 193.928 899.726 194.75 897.726 195.559L877.841 204C851.975 178.552 823.52 159.804 791.95 142.338Z"/>
	<path fill="#C658B8" transform="scale(0.5 0.5)" d="M966.479 293.865C956.848 293.442 944.738 294.447 935.5 292.556C931.42 291.72 927.562 289.644 923.686 288.172L902.175 280.793C906.391 271.336 909.093 261.28 914.104 252.162C915.831 249.02 917.772 245.572 921.5 244.613C931.623 242.009 948.278 270.136 952.323 277.445C954.664 281.676 956.973 289.554 961.067 292.147L966.479 293.865Z"/>
	<path fill="#F6B63B" transform="scale(0.5 0.5)" d="M922.767 398.021L937.416 378.669C940.577 374.062 944.002 367.538 948.527 364.269C955.621 359.144 964.636 358.358 973.051 359.866C984.865 361.982 990.815 372.312 997.066 381.423C988.524 384.954 982.54 391.373 974.042 394.775C960.015 394.904 948.177 395.278 934.569 399.065C931.487 397.483 926.264 398.06 922.767 398.021Z"/>
	<defs>
		<linearGradient id="gradient_0" gradientUnits="userSpaceOnUse" x1="882.17175" y1="204.92026" x2="892.92816" y2="254.54065">
			<stop offset="0" stop-color="#6C5CD1"/>
			<stop offset="1" stop-color="#8884EA"/>
		</linearGradient>
	</defs>
	<path fill="url(#gradient_0)" transform="scale(0.5 0.5)" d="M822.174 272.817L801.648 274.207C834.539 234.501 878.569 209.438 927.767 195.259C939.056 192.006 950.216 188.772 961.863 187.045C964.14 187.501 966.366 188.167 968.678 187.679L969 188.755L968.54 188.787C966.184 189.021 964.616 190.167 962.704 191.431C955.964 193.78 948.917 195.017 942.168 197.339C901.545 211.311 859.859 231.452 831.184 264.456C828.265 267.24 825.381 270.381 822.174 272.817Z"/>
	<path fill="#F5992C" transform="scale(0.5 0.5)" d="M1028.79 390.51L1047.49 388.648C1057.34 397.368 1069.38 402.588 1082.78 401.75C1092.15 401.163 1100.45 398.263 1108.21 392.943L1157.48 392.162L1157.06 392.614C1141.18 409.148 1116.04 416.766 1093.61 416.999C1069.03 417.254 1046.22 407.646 1028.79 390.51Z"/>
	<path fill="#F1709D" transform="scale(0.5 0.5)" d="M961.067 292.147C974.834 271.048 995.134 250.286 1018.11 239.47L1029.16 281.883L1006.08 288.917C1001.6 290.479 996.422 292.961 991.825 293.823C984.199 295.253 974.318 294.04 966.479 293.865L961.067 292.147Z"/>
	<path fill="#F1709D" transform="scale(0.5 0.5)" d="M920.888 786.281C935.397 785.558 948.859 786.587 961.052 795.361C972.935 803.914 976.548 815.6 978.694 829.322L943.58 829.348C942.21 824.819 939.632 817.733 941.04 813C941.976 809.85 944.14 807.23 945.114 804L944 802.086L942 801.75C940.991 802.179 939.977 802.703 939.204 803.5C934.539 808.31 934.644 815.577 934.823 821.781L936.036 828L935 829.131L909.5 828.765C907.841 826.235 906.899 823.92 906.5 820.908C905.577 813.934 907.152 809.021 911.379 803.5L910.368 801.613L908 801.077C906.074 802.265 904.497 803.429 903.224 805.339C898.52 812.396 900.012 820.239 901.556 828L900.5 829.068L892.5 829.079C889.879 827.41 888.707 823.417 888.135 820.5C886.865 814.026 888.902 806.947 892.616 801.634C899.346 792.005 909.792 788.217 920.888 786.281Z"/>
	<path fill="#F1709D" transform="scale(0.5 0.5)" d="M1126.09 835.259C1136.58 828.115 1155.66 825.897 1168.03 828.153C1174.06 829.251 1178.8 833.163 1183.32 837.041L1185.29 839.683C1191.22 850.806 1193.08 859.36 1193.08 871.919C1185.84 872.011 1159.57 873.814 1154.59 871.079L1153.46 873.438L1148.82 872.154L1145.58 872.158C1144.09 873.49 1143.56 874.246 1141.5 874.437C1135.24 875.018 1128.86 872.456 1124.17 868.544C1122.35 867.607 1121.5 865.883 1120.41 864.166C1117.22 859.129 1116.34 853.648 1117.67 847.857C1118.95 842.3 1121.18 838.254 1126.09 835.259Z"/>
	<path fill="#282083" transform="scale(0.5 0.5)" d="M1148.82 872.154C1146.64 864.763 1145.89 856.992 1149.19 849.783C1150.51 846.88 1152.52 844.11 1155.5 842.978L1157.5 843.984C1158.74 848.321 1152.7 853.866 1152.23 858.83C1151.89 862.38 1153.71 867.555 1154.59 871.079L1153.46 873.438L1148.82 872.154Z"/>
	<path fill="#282083" transform="scale(0.5 0.5)" d="M1124.29 844.507C1126.97 841.721 1127.59 840.266 1131.5 839.699L1132.48 841.057C1128.68 850.267 1125.87 856.241 1130.09 866.5C1130.74 868.066 1132.2 871.26 1133.84 871.831C1136.78 872.851 1142.36 872.151 1145.58 872.158C1144.09 873.49 1143.56 874.246 1141.5 874.437C1135.24 875.018 1128.86 872.456 1124.17 868.544C1121.54 859.697 1121.12 853.268 1124.29 844.507Z"/>
	<path fill="#282083" transform="scale(0.5 0.5)" d="M893.679 586.879C894.36 585.619 894.928 584.451 896 583.467C897.948 588.284 894.857 600.806 894.216 606.5C891.213 633.168 890.722 660.4 879.971 685.544C867.484 714.751 847.634 731.202 821.204 747.144L807.325 706.475C822.653 697.751 835.4 688.658 847.094 675.156C865.153 654.306 880.736 628.066 889.931 601.984C891.631 597.162 894.052 592.08 893.679 586.879Z"/>
	<path fill="#F1709D" transform="scale(0.5 0.5)" d="M1824.36 500.751C1829.42 501.143 1834.36 501.815 1838.93 504.168C1851.93 530.336 1857.56 555.523 1860.68 584.396C1860.11 586.52 1857.29 588.993 1855.85 590.661L1842.08 607.455C1831.55 595.053 1815.7 581.032 1801.8 572.397L1801.18 572.018L1800.41 571.176C1798.3 558.898 1794.71 545.589 1797.61 533.124C1801.43 516.72 1810.6 509.024 1824.36 500.751Z"/>
	<path fill="#C42A68" transform="scale(0.5 0.5)" d="M781.419 149.233C789.697 153.227 797.578 158.663 805.328 163.603C826.901 177.355 846.916 192.815 866.099 209.749L831.775 231.145L796.989 263.019C793.624 249.08 789.682 235.145 787.232 221.009C783.077 197.039 781.765 173.494 781.419 149.233Z"/>
	<path fill="#1AC4CA" transform="scale(0.5 0.5)" d="M856.223 845.347L858.53 844.914L1068.5 845.535L1070.88 845.125C1071.19 845.599 1071.36 845.804 1071.52 846.413C1072.3 849.441 1071.69 851.841 1070.2 854.5C1066.15 861.732 1053.19 867.248 1045.5 869.452C1037.31 871.798 1027.84 870.902 1019.37 870.901L976.166 870.825L849.458 870.9C854.149 861.111 856.358 856.405 856.223 845.347Z"/>
	<path fill="#D75B12" transform="scale(0.5 0.5)" d="M913.869 657.347L921.891 667.044C927.876 674.787 933.438 683.255 939.995 690.5C958.487 710.932 983.42 720.931 1010.41 724.428C1027.14 726.596 1045.34 724.746 1061.62 720.561C1044.28 736.871 1023.55 751.664 1001.77 761.457C987.778 767.749 973.116 772.02 958.403 776.237C951.135 767.847 945.467 757.702 940.444 747.859C926.027 719.602 917.874 688.709 913.869 657.347Z"/>
	<path fill="#6669AA" transform="scale(0.5 0.5)" d="M909.089 718.5L911.042 718.595L924.571 743.524C931.607 755.524 939.896 767.091 948.481 778.026C938.026 777.892 926.092 777.658 915.773 779.609C904.329 781.772 893.599 787.628 887.116 797.47C880.472 807.556 881.229 817.776 883.519 829.046L870.25 828.914L847.782 828.463L828.521 771.237C830.262 768.864 839.676 765.995 842.956 764.478C849.735 761.343 856.167 757.636 862.557 753.78C879.376 743.632 895.233 732.52 909.089 718.5Z"/>
	<path fill="#C42A68" transform="scale(0.5 0.5)" d="M1171.31 236.506C1176.06 228.991 1183.37 222.112 1189.61 215.794C1216.27 188.837 1246.42 166.036 1281.85 151.873L1282.38 202.507C1280.93 221.176 1278.27 239.073 1274.74 257.448C1273.03 266.378 1271.51 276.282 1267.94 284.679C1264.58 280.904 1258.4 277.942 1254.06 275.382L1213.58 253.9L1187.53 242.136C1182.36 239.876 1176.98 237.121 1171.31 236.506Z"/>
	<path fill="#F1709D" transform="scale(0.5 0.5)" d="M1213.58 253.9C1234.91 232.374 1256.1 213.013 1281.5 196.279L1282.38 202.507C1280.93 221.176 1278.27 239.073 1274.74 257.448C1273.03 266.378 1271.51 276.282 1267.94 284.679C1264.58 280.904 1258.4 277.942 1254.06 275.382L1213.58 253.9Z"/>
	<path fill="#3FE0D9" transform="scale(0.5 0.5)" d="M406.564 773.264L362.54 636.133L342.01 573.094C340.911 569.606 337.036 560.726 337.319 557.302C337.397 556.363 338.834 554.176 339.347 553.18C341.525 548.956 344.219 545.635 349.018 544.332C356.514 542.297 368.683 543.97 376.655 543.96L456.196 543.942L633.623 543.951L721.782 544.06C727.154 544.302 732.014 545.813 736.57 548.691C741.091 551.547 744.473 555.706 746.589 560.581C753.083 575.547 757.396 592.263 762.812 607.681L808.127 741.057L833.916 816.864C837.145 826.519 841.666 836.655 843.792 846.574C845.054 852.459 843.983 857.608 840.636 862.564L838.342 865.658L739.878 570.238C737.498 564.657 732.714 559.267 726.939 557.084C723.907 555.938 721.785 555.075 718.469 554.994L630.431 554.998L451.535 555.004L381.298 555.002C371.867 554.973 359.037 553.368 350.064 555.298C347.558 555.837 345.703 557.742 344.42 559.855C343.375 561.577 343.519 563.451 344.005 565.33L347.441 575.881L388.236 705.931L402.5 754.802C403.802 759.482 407.605 768.499 406.564 773.264Z"/>
	<path fill="#D75B12" transform="scale(0.5 0.5)" d="M1224.65 670.131C1232.66 689.947 1240.51 707.024 1254.55 723.504L1244.46 732.638C1238.73 739.348 1234.04 746.678 1230.5 754.772C1220.24 778.249 1223.36 802.518 1232.51 825.629L1190.14 823.357C1174.33 822.104 1157.24 819.211 1141.46 821.655C1132.5 823.043 1125.35 825.776 1117.89 831L1084.97 813.023L1093.25 809.534C1138.34 788.878 1179.28 761.261 1204.38 717.345C1212.14 703.773 1217.62 689.29 1223.05 674.688L1224.65 670.131Z"/>
	<path fill="#F6B63B" transform="scale(0.5 0.5)" d="M1224.65 670.131C1232.66 689.947 1240.51 707.024 1254.55 723.504L1244.46 732.638C1241.74 729.524 1239.81 725.355 1237.83 721.721C1229.43 706.362 1226.48 691.542 1223.05 674.688L1224.65 670.131Z"/>
	<path fill="#282083" transform="scale(0.5 0.5)" d="M1195.63 364.777C1197.36 356.785 1198.19 349.041 1198.19 340.859L1290.71 355.236C1291.5 391.764 1283.54 428.024 1257.41 455.111C1253.22 459.46 1248.82 463.446 1244.1 467.207C1241.45 469.317 1236.13 472.785 1235.07 476.063L1164.58 452.503L1176.94 439.007L1242.92 437.539C1238.19 434.214 1188.53 434.128 1179.67 433.994L1179.99 433.578C1191.38 416.48 1198.23 385.109 1195.63 364.777Z"/>
	<path fill="#04617C" transform="scale(0.5 0.5)" d="M388.236 705.931L599.681 871.976L508.539 872.056C493.621 872.046 477.611 873.157 462.807 871.694C457.854 871.205 453.049 870.02 448.688 867.565C443.345 864.559 437.952 859.912 434.662 854.717C428.527 845.029 425.838 831.37 422.199 820.494L406.564 773.264C407.605 768.499 403.802 759.482 402.5 754.802L388.236 705.931Z"/>
	<path fill="#F6B63B" transform="scale(0.5 0.5)" d="M808.516 293.873C842.108 292.4 872.514 292.737 904.964 303.304C910.211 305.013 918.046 306.949 922.163 310.697C928.122 316.122 928.916 327.713 929.094 335.285C929.581 355.927 921.559 372.221 907.468 386.87C892.071 402.877 869.098 412.384 847 412.896C827.579 413.346 807.948 405.073 791.237 395.929C785.096 392.568 778.003 388.771 772.923 383.892C766.55 377.772 766.955 367.648 766.994 359.65C767.023 353.602 765.988 345.11 767.283 339.494C773.448 325.442 774.041 314.884 787.646 304.842C789.988 301.468 793.087 298.508 795.887 295.508L808.516 293.873Z"/>
	<path fill="#F1FAFA" transform="scale(0.5 0.5)" d="M795.887 295.508L808.516 293.873C803.598 300.164 798.108 306.545 794.173 313.5C784.648 330.335 781.544 348.373 776.336 366.67C775.999 358.32 775.385 349.726 776.591 341.417C778.49 328.344 783.35 317.154 787.646 304.842C789.988 301.468 793.087 298.508 795.887 295.508Z"/>
	<path fill="#282083" transform="scale(0.5 0.5)" d="M811.407 374.907C805.18 367.897 801.848 355.214 802.411 345.976C803.102 334.626 808.259 324.1 816.803 316.621C828.184 306.657 843.536 303.03 858.354 304.093C870.634 304.973 885.092 311.555 893.168 320.884C900.796 329.696 904.759 341.133 903.818 352.786C903.207 360.36 899.717 374.03 893.733 379.248L893.401 379.518C897.385 369.159 899.307 359.409 896.239 348.401C893.009 336.816 885.201 327.49 874.728 321.762C863.699 315.73 850.553 314.89 838.65 318.543C827.953 321.826 818.52 329.16 813.278 339.08C806.843 351.259 807.445 362.071 811.407 374.907Z"/>
	<path fill="#FCFCFD" transform="scale(0.5 0.5)" d="M811.407 374.907C807.445 362.071 806.843 351.259 813.278 339.08C818.52 329.16 827.953 321.826 838.65 318.543C850.553 314.89 863.699 315.73 874.728 321.762C885.201 327.49 893.009 336.816 896.239 348.401C899.307 359.409 897.385 369.159 893.401 379.518L893.103 379.668C889.249 386.673 883.463 391.448 876.335 394.977C864.75 400.714 850.986 401.643 838.75 397.528C827.077 393.602 816.959 386.065 811.407 374.907Z"/>
	<path fill="#0A99A3" transform="scale(0.5 0.5)" d="M848.072 330.254C856.204 329.702 864.466 330.569 871.5 334.921C879.526 339.887 884.191 346.198 886.263 355.481C887.915 362.88 886.926 370.553 882.79 376.972C876.952 386.032 869.125 390.587 858.902 392.885C850.553 393.169 842.088 392.661 834.792 388.113C827.448 383.536 821.987 375.728 820.174 367.248C818.618 359.971 819.889 351.143 824.04 344.953C829.922 336.182 837.906 332.074 848.072 330.254Z"/>
	<path fill="#FCFCFD" transform="scale(0.5 0.5)" d="M835.793 350.006C838.019 351.821 840.894 353.283 841.002 356.5C841.086 358.981 839.925 361.282 837.942 362.747C837.108 363.363 835.956 363.731 834.983 364.073C833.077 363.863 831.708 362.898 830.09 361.928C828.773 359.182 828.719 358.55 828.944 355.5C831.016 352.275 832.471 351.788 835.793 350.006Z"/>
	<path fill="#FCFCFD" transform="scale(0.5 0.5)" d="M859.165 344.917C861.531 341.618 863.3 338.988 867.677 338.52C870.289 338.241 873.444 339.54 875.335 341.312C877.219 343.078 878.066 345.101 878.877 347.5C878.712 350.766 877.847 353.636 875.333 355.892C873.062 357.928 870.514 358.264 867.589 358.606C865.607 357.863 862.892 356.478 861.5 354.829C858.778 351.603 859.112 348.852 859.165 344.917Z"/>
	<path fill="#282083" transform="scale(0.5 0.5)" d="M835.793 350.006L835.81 348.858C839.623 345.414 843.437 342.995 848.711 342.705C852.57 342.494 856.211 342.381 859.165 344.917C859.112 348.852 858.778 351.603 861.5 354.829C862.892 356.478 865.607 357.863 867.589 358.606L870.23 359.5C870.684 364.259 869.84 369.286 866.655 373.042C863.357 376.931 859.232 378.837 854.179 379.131C848.96 379.435 845.621 378.012 841.152 375.554C838.279 373.975 836.287 369.621 835.5 366.543L834.983 364.073C835.956 363.731 837.108 363.363 837.942 362.747C839.925 361.282 841.086 358.981 841.002 356.5C840.894 353.283 838.019 351.821 835.793 350.006Z"/>
	<path fill="#F6B63B" transform="scale(0.5 0.5)" d="M1028.79 390.51C1012.57 371.171 1004.04 346.489 1006.2 321.061C1006.58 316.647 1008.64 312.725 1012.02 309.82C1017.17 305.383 1026.53 303.412 1033 301.767C1066.64 293.219 1103.6 290.702 1138.16 294.213C1147.86 295.199 1168.7 296.729 1175.59 304.5C1182.82 312.648 1179.59 340.345 1178.49 350.891C1176.84 366.849 1168.97 381.092 1157.48 392.162L1108.21 392.943C1100.45 398.263 1092.15 401.163 1082.78 401.75C1069.38 402.588 1057.34 397.368 1047.49 388.648L1028.79 390.51Z"/>
	<path fill="#282083" transform="scale(0.5 0.5)" d="M1038.06 371.835C1037.63 371.418 1037.25 370.998 1036.93 370.478C1032.74 363.571 1034.08 346.761 1036.18 339.5C1039.29 328.747 1047.52 316.709 1057.59 311.248C1070.28 304.363 1086.6 301.76 1100.5 306.15C1114.11 310.449 1122.41 320.691 1128.87 332.795C1137.52 334.357 1143.58 332.79 1152.02 330.893C1145.82 334.875 1139.69 339.279 1132.53 341.29C1131.82 341.49 1130.72 341.195 1130.38 341.851C1129.99 342.611 1130.3 346.733 1130.27 347.795C1130.04 356.084 1128.78 363.989 1123.65 370.807C1125.56 357.484 1124.41 345.893 1116.04 334.755C1109.85 326.523 1099.8 320.563 1089.55 319.146C1076.78 317.379 1064.51 320.106 1054.23 328.132C1045.48 334.967 1039.2 345.94 1037.93 357.017C1037.37 361.986 1037.57 366.869 1038.06 371.835Z"/>
	<path fill="#FCFCFD" transform="scale(0.5 0.5)" d="M1038.06 371.835C1037.57 366.869 1037.37 361.986 1037.93 357.017C1039.2 345.94 1045.48 334.967 1054.23 328.132C1064.51 320.106 1076.78 317.379 1089.55 319.146C1099.8 320.563 1109.85 326.523 1116.04 334.755C1124.41 345.893 1125.56 357.484 1123.65 370.807C1121.04 380.009 1115.55 386.983 1108.21 392.943C1100.45 398.263 1092.15 401.163 1082.78 401.75C1069.38 402.588 1057.34 397.368 1047.49 388.648C1042.92 383.484 1040.04 378.402 1038.06 371.835Z"/>
	<path fill="#0A99A3" transform="scale(0.5 0.5)" d="M1051.73 380.386C1050.24 378.2 1049.02 375.957 1047.98 373.52C1044.73 365.907 1044.45 357.849 1047.64 350.125C1050.56 343.059 1056.82 337.078 1063.91 334.254C1073.24 330.536 1083.19 331.301 1092.2 335.373C1095.96 337.069 1100.48 339.979 1102.04 343.955C1102.43 344.222 1102.94 344.522 1103.29 344.874C1106.73 348.356 1108.88 356.759 1109.01 361.573C1109.22 369.797 1105.09 378.974 1099.35 384.751C1093.69 390.436 1085.24 393.188 1077.31 393.007C1066.27 392.754 1059.13 387.922 1051.73 380.386Z"/>
	<path fill="#FCFCFD" transform="scale(0.5 0.5)" d="M1083.19 345.955L1084.55 343.983C1086.36 341.617 1088.9 339.975 1091.9 339.706C1096.37 339.304 1098.78 341.122 1102.04 343.955C1102.84 346.969 1103.72 349.566 1102.11 352.5C1100.54 355.371 1098.14 357.423 1094.93 358.232L1091.36 358.885C1089.27 358.091 1086.57 356.699 1085.05 354.99C1082.54 352.161 1083.11 349.435 1083.19 345.955Z"/>
	<path fill="#282083" transform="scale(0.5 0.5)" d="M1056.5 354.41L1056.59 353.454C1056.96 350.818 1059.93 347.615 1062.01 346.134C1066.26 343.115 1072.51 341.115 1077.73 342.177C1080.76 342.796 1081.49 343.407 1083.19 345.955C1083.11 349.435 1082.54 352.161 1085.05 354.99C1086.57 356.699 1089.27 358.091 1091.36 358.885L1094.73 359.5C1095.34 363.498 1095.75 367.611 1093.3 371.104C1090.47 375.124 1085.9 377.9 1081.1 378.846C1076.33 379.786 1070.86 378.947 1066.9 376.069C1064.75 374.503 1062.79 372.693 1061.52 370.323C1058.48 368.483 1056.16 368.144 1054.78 364.5C1053.39 360.825 1055.05 357.779 1056.5 354.41Z"/>
	<path fill="#FCFCFD" transform="scale(0.5 0.5)" d="M1056.5 354.41C1060.75 354.952 1062.61 354.945 1066.02 357.5C1067.19 360.578 1066.98 361.692 1066.5 364.845C1064.96 366.886 1063.47 368.635 1061.52 370.323C1058.48 368.483 1056.16 368.144 1054.78 364.5C1053.39 360.825 1055.05 357.779 1056.5 354.41Z"/>
	<path fill="#282083" transform="scale(0.5 0.5)" d="M1242.86 154.738L1261.52 149.539C1253.45 155.868 1242.99 160.124 1234.3 165.814C1206.83 183.795 1181.3 206.631 1162.27 233.417L1171.31 236.506C1176.98 237.121 1182.36 239.876 1187.53 242.136L1213.58 253.9L1254.06 275.382C1258.4 277.942 1264.58 280.904 1267.94 284.679L1268.13 285.243C1276.99 291.203 1281.46 306.978 1286.4 316.207C1280.13 315.797 1273.88 313.808 1267.69 312.672L1217.3 303.132L1202.67 300.733C1201.34 300.565 1197.56 300.339 1196.52 299.692C1195.91 299.316 1193.7 294.68 1193.02 293.667C1190.45 289.804 1186.21 285.978 1182.13 283.838C1168.65 276.761 1150.14 274.405 1135.13 272.685C1131.05 272.218 1125.21 272.638 1121.45 271.274C1116.41 269.441 1110.68 264.342 1105.86 261.625C1094.17 255.031 1073.51 245.303 1059.93 249.417C1054.75 250.988 1050.61 252.946 1047.68 257.795C1044 263.898 1045.12 270.013 1046.76 276.496L1032.01 280.736C1029.98 270.283 1027.62 260.02 1024.47 249.841C1023.01 245.11 1021.93 240.411 1018.5 236.676C1017.69 236.585 1016.94 236.563 1016.12 236.634C1013.1 236.895 1008.97 239.988 1006.44 241.596C988.339 253.088 973.71 269.953 960.543 286.647C953.475 272.458 944.201 252.15 930.323 243.356L929.5 242.848C928.8 242.408 928.146 241.97 927.37 241.667C925.024 240.753 921.882 240.446 919.539 241.472C909.624 245.814 902.919 270.183 899.17 279.934C896.419 279.049 891.126 279.013 889.246 277L890.106 275.5C892.232 271.893 892.778 268.581 892.035 264.389C891.494 261.338 888.57 258.171 886.011 256.536C884.1 255.314 883.472 255.535 881.449 256.059C863.202 254.18 848.17 258.716 831.184 264.456C859.859 231.452 901.545 211.311 942.168 197.339C948.917 195.017 955.964 193.78 962.704 191.431C964.616 190.167 966.184 189.021 968.54 188.787L969 188.755L968.678 187.679C966.366 188.167 964.14 187.501 961.863 187.045C966.63 185.322 972.627 185.044 977.678 184.36L1016.3 181.051C1049.15 179.906 1084.55 183.376 1116.43 191.349C1128.74 194.427 1140.68 199.238 1152.97 202.129C1171.76 186.846 1193.42 174.323 1215.45 164.373C1224.01 160.508 1233.55 156.181 1242.86 154.738Z"/>
	<path fill="#885BDF" transform="scale(0.5 0.5)" d="M961.863 187.045C966.63 185.322 972.627 185.044 977.678 184.36L1016.3 181.051C1009.15 183.727 1001.15 183.979 993.63 185.33L962.704 191.431C964.616 190.167 966.184 189.021 968.54 188.787L969 188.755L968.678 187.679C966.366 188.167 964.14 187.501 961.863 187.045Z"/>
	<path fill="#7F79F0" transform="scale(0.5 0.5)" d="M1152.97 202.129C1171.76 186.846 1193.42 174.323 1215.45 164.373C1224.01 160.508 1233.55 156.181 1242.86 154.738C1231.27 164.405 1213.77 170.383 1200.47 177.803C1184.54 186.684 1168.36 199.005 1151.48 205.678C1150.96 205.881 1150.52 205.988 1149.96 205.909L1149.3 205.783C1150.48 204.484 1151.6 203.226 1152.97 202.129Z"/>
	<path fill="#F5992C" transform="scale(0.5 0.5)" d="M928.322 536.517C955.696 541.142 981.823 543.217 1009.57 543.048L1004 544.594C1023.7 547.197 1043.78 547.169 1063.61 548.42L1127.07 555.524C1137.14 556.99 1150.05 557.922 1159.08 562.714C1161.06 562.222 1163.33 562.218 1165.37 562.034L1165.95 562.503C1168.29 564.295 1173.13 565.162 1175.98 566.255C1183.34 569.075 1191.52 574.098 1197.27 579.458C1181.81 573.792 1169.9 569.997 1154.02 577.364C1145.82 581.171 1140.04 587.082 1133.92 593.542C1121.57 609.795 1116.72 627.392 1110.27 646.36C1100.39 675.433 1083.83 699.515 1061.62 720.561C1045.34 724.746 1027.14 726.596 1010.41 724.428C983.42 720.931 958.487 710.932 939.995 690.5C933.438 683.255 927.876 674.787 921.891 667.044L913.869 657.347C910.515 628.425 911.373 596.676 917.591 568.255C919.618 557.133 923.102 546.552 928.322 536.517Z"/>
	<path fill="#FCFCFD" transform="scale(0.5 0.5)" d="M917.591 568.255L926.777 571.929C923.871 590.544 920.991 608.332 920.881 627.236C920.805 640.347 922.517 654.08 921.891 667.044L913.869 657.347C910.515 628.425 911.373 596.676 917.591 568.255Z"/>
	<path fill="#282083" transform="scale(0.5 0.5)" d="M1042.2 626.5L1045 626.991C1045.47 627.494 1046.61 628.429 1046.87 629C1048.23 632.009 1048.04 639.598 1048.33 643.065L1051.44 677.533C1047.59 679.749 1042.74 680.684 1038.5 681.962L1016.6 688.834C1013.07 689.983 1007.13 692.883 1003.58 693.09C1000.99 693.24 995.05 690.362 992.486 689.462L963.222 680.082C960.629 679.408 959.249 678.6 957.31 676.755C957.063 675.177 956.889 673.6 956.958 672L959.968 639.74C960.125 637.88 960.154 630.92 960.991 629.5C961.364 628.867 962.754 627.942 963.353 627.412C970.776 627.524 981.467 634.373 988.405 637.668C989.675 638.271 992.612 640.153 993.752 640.215C994.794 640.271 997.095 639.256 998.279 638.951C1003.32 637.654 1006.69 637.327 1011.5 639.368C1011.76 639.48 1013.76 640.144 1014 640.067C1016.11 639.406 1018.78 637.382 1020.87 636.339C1027.8 632.883 1034.9 629.074 1042.2 626.5Z"/>
	<path fill="#F1FAFA" transform="scale(0.5 0.5)" d="M1035.98 638.5L1039.5 638.017C1040.3 640.745 1040.03 643.104 1039.76 645.874L1037.5 645.378C1035.66 644.354 1033.98 642.98 1032.28 641.743L1032.5 639.996L1035.98 638.5Z"/>
	<path fill="#F1FAFA" transform="scale(0.5 0.5)" d="M1000.81 656.5C1002.98 655.616 1004.21 655.575 1006.5 656.058C1009.32 660.829 1016.91 671.643 1016.69 676.72L1014 678.634C1010.99 676.944 1010.04 673.739 1008.48 670.713L1003.7 660.223L998.946 673.5C996.541 673.849 996.501 673.856 994.453 672.554C995.602 666.725 998.192 661.776 1000.81 656.5Z"/>
	<path fill="#282083" transform="scale(0.5 0.5)" d="M928.322 536.517C955.696 541.142 981.823 543.217 1009.57 543.048L1004 544.594C1023.7 547.197 1043.78 547.169 1063.61 548.42L1127.07 555.524C1137.14 556.99 1150.05 557.922 1159.08 562.714C1143.89 568.7 1128.76 574.319 1112.87 578.21C1071.6 588.315 1028.93 589.081 986.811 584.945C968.133 583.11 946.479 580.331 929.108 573.106L926.777 571.929L917.591 568.255C919.618 557.133 923.102 546.552 928.322 536.517Z"/>
	<path fill="#0A8A9C" transform="scale(0.5 0.5)" d="M347.441 575.881L348.992 575.255L404.126 617.664L491.676 685.765L523.566 711.13C528.232 714.928 532.737 719.944 538.04 722.737C540.953 735.346 546.725 744.761 558.052 751.714C568.022 757.835 580.056 759.097 591.288 756.368C601.326 753.929 610.754 747.152 616.061 738.185C619.248 732.799 620.528 727.387 621.773 721.332C629.526 728.943 638.628 734.956 647.082 741.753L718.538 797.401L788.844 851.238C796.053 856.789 802.771 863.821 810.091 868.931C812.22 870.418 815.247 871.159 817.701 871.99L599.681 871.976L388.236 705.931L347.441 575.881Z"/>
	<path fill="#FCFCFD" transform="scale(0.5 0.5)" d="M997.066 381.423C1016.94 409.561 1041.3 426.507 1075.61 432.546C1086.33 434.434 1098.35 434.536 1109.24 433.806L1108.74 434.368C1105.71 437.653 1101.58 437.565 1097.5 438.586L1179.67 433.994C1188.53 434.128 1238.19 434.214 1242.92 437.539L1176.94 439.007L1164.58 452.503L1235.07 476.063L1233.57 476.483L1232.66 476.92C1220.28 482.897 1209.45 494.161 1195.03 494.198L1208.09 503.5L1207 504.092C1202.49 501.627 1197.67 498.463 1192.93 496.572L1180.02 502.92C1139.68 520.995 1096.8 533.743 1052.96 539.561C1038.69 541.454 1023.96 543.183 1009.57 543.048C981.823 543.217 955.696 541.142 928.322 536.517C887.602 526.136 846.909 511.986 815.28 483.042L805.03 473.906L795.991 477.289C775.858 486.169 756.445 494.867 738.5 507.753L736.924 506C738.142 503.016 744.679 499.53 747.456 497.831C762.54 488.606 778.438 481.359 794.504 474.085L802.633 470.746C796.857 466.383 792.638 459.053 788.732 453.021L778.255 454.337C759.671 457.304 737.179 462.486 720.404 471.231L719.5 471.707L717.5 471.07L717.256 469.5C722.664 466.178 729.307 464.047 735.296 461.965C749.187 457.137 763.4 453.665 777.78 450.652L786.666 449.173L779.633 432.899L768.585 432.968C757.299 432.848 745.925 432.7 734.799 434.786C730.391 435.612 721.347 438.96 717.331 437.707L717.5 435.861C729.614 430.288 748.459 429.647 761.502 429.744C767.076 429.785 773.402 430.71 778.843 429.405L779.508 429.236L782.061 430.06C795.458 428.185 810.08 431.124 823.509 431.809C830.076 432.143 836.84 431.467 843.42 431.228C847.928 431.064 853.243 431.446 857.542 430.24C883.542 427.803 904.744 416.892 922.767 398.021C926.264 398.06 931.487 397.483 934.569 399.065C948.177 395.278 960.015 394.904 974.042 394.775C982.54 391.373 988.524 384.954 997.066 381.423Z"/>
	<path fill="#C658B8" transform="scale(0.5 0.5)" d="M779.633 432.899L792.991 434.224C795.578 438.624 799.304 442.847 802.901 446.463L786.666 449.173L779.633 432.899Z"/>
	<path fill="#C658B8" transform="scale(0.5 0.5)" d="M805.03 473.906C817.759 468.849 831.092 466.164 844.285 462.709L831.479 470.861L815.28 483.042L805.03 473.906Z"/>
	<path fill="#F1709D" transform="scale(0.5 0.5)" d="M807.611 451.677C821.469 450.816 835.258 448.931 849.157 448.945C852.479 448.948 857.064 448.402 860.152 449.277C846.879 453.351 832.882 456.132 820.603 462.774L807.611 451.677Z"/>
	<path fill="#F1709D" transform="scale(0.5 0.5)" d="M792.991 434.224L861.605 442.465C852.713 444.919 840.844 443.181 831.508 443.562C821.91 443.954 812.413 445.208 802.901 446.463C799.304 442.847 795.578 438.624 792.991 434.224Z"/>
	<path fill="#C658B8" transform="scale(0.5 0.5)" d="M788.732 453.021L807.611 451.677L820.603 462.774L802.633 470.746C796.857 466.383 792.638 459.053 788.732 453.021Z"/>
	<path fill="#F1709D" transform="scale(0.5 0.5)" d="M1147.03 467.649C1144.84 465.336 1139.79 463.306 1136.85 461.947C1120.14 454.247 1103.03 452.037 1085.5 447.598C1094.54 446.047 1105.88 448.61 1115 449.889L1160.81 456.705C1156.4 460.495 1152.05 464.676 1147.03 467.649Z"/>
	<path fill="#282083" transform="scale(0.5 0.5)" d="M1139.93 470.911L1192.93 496.572L1180.02 502.92L1136.8 474.5L1139.93 470.911Z"/>
	<path fill="#F1709D" transform="scale(0.5 0.5)" d="M1164.58 452.503C1148.93 449.774 1133.49 446.212 1117.65 444.472C1109.24 443.548 1100.47 443.753 1092 443.589L1092.97 442.5L1176.94 439.007L1164.58 452.503Z"/>
	<path fill="#282083" transform="scale(0.5 0.5)" d="M1160.81 456.705L1233.57 476.483L1232.66 476.92C1220.28 482.897 1209.45 494.161 1195.03 494.198L1147.03 467.649C1152.05 464.676 1156.4 460.495 1160.81 456.705Z"/>
	<path fill="#11156D" transform="scale(0.5 0.5)" d="M974.042 394.775C979.534 395.473 988.279 396.258 991.779 401.179C993.092 403.025 993.191 404.203 992.695 406.337C990.785 414.55 978.513 421.886 972.014 426.23C971.309 426.701 967.761 428.65 967.441 429.231C965.565 432.636 966.991 444.563 968.975 447.865C971.644 452.305 977.003 456.01 981.994 457.253C986.737 458.434 992.024 457.574 996.185 455.039C999.653 452.926 1002.59 447.562 1005.5 446.069C1005.92 445.854 1008.38 446.129 1009 446.142C1011.17 448.652 1011.03 448.662 1010.88 452C1006.68 458.285 999.849 464.314 992.225 465.857C985.89 467.14 978.02 466.011 972.631 462.312C969.39 460.087 966.517 457.398 963.713 454.656C957.999 460.481 951.589 465.897 942.884 465.898C935.552 465.899 929.185 463.034 924.101 457.811C922.527 456.195 921.295 454.443 920.166 452.5L920.306 449.215C922.756 447.225 922.686 447 925.792 447.264C930.152 451.952 934.708 457.478 941.635 457.677C945.845 457.798 950.08 455.919 953.037 452.984C956.537 449.51 958.691 444.856 958.688 439.87C958.686 436.726 958.03 433.418 957.528 430.317C949.59 424.762 934.971 416.56 933.027 406.5C932.486 403.703 932.987 401.435 934.569 399.065C948.177 395.278 960.015 394.904 974.042 394.775Z"/>
	<path fill="#A1DBF1" transform="scale(0.5 0.5)" d="M831.479 470.861C911.163 512.373 1006.86 520.749 1092.71 493.862C1107.03 489.377 1123.15 482.826 1135.51 474.377L1109.51 463.5L1110.01 462.213C1119.8 463.003 1130.62 467.751 1139.93 470.911L1136.8 474.5L1180.02 502.92C1139.68 520.995 1096.8 533.743 1052.96 539.561C1038.69 541.454 1023.96 543.183 1009.57 543.048C981.823 543.217 955.696 541.142 928.322 536.517C887.602 526.136 846.909 511.986 815.28 483.042L831.479 470.861Z"/>
	<path fill="#0A99A3" transform="scale(0.5 0.5)" d="M347.441 575.881L344.005 565.33C343.519 563.451 343.375 561.577 344.42 559.855C345.703 557.742 347.558 555.837 350.064 555.298C359.037 553.368 371.867 554.973 381.298 555.002L451.535 555.004L630.431 554.998L718.469 554.994C721.785 555.075 723.907 555.938 726.939 557.084C732.714 559.267 737.498 564.657 739.878 570.238L838.342 865.658C831.65 871.448 826.411 872.244 817.701 871.99C815.247 871.159 812.22 870.418 810.091 868.931C802.771 863.821 796.053 856.789 788.844 851.238L718.538 797.401L647.082 741.753C638.628 734.956 629.526 728.943 621.773 721.332C620.528 727.387 619.248 732.799 616.061 738.185C610.754 747.152 601.326 753.929 591.288 756.368C580.056 759.097 568.022 757.835 558.052 751.714C546.725 744.761 540.953 735.346 538.04 722.737C532.737 719.944 528.232 714.928 523.566 711.13L491.676 685.765L404.126 617.664L348.992 575.255L347.441 575.881Z"/>
	<path fill="#FCFCFD" transform="scale(0.5 0.5)" d="M538.04 722.737C537.921 717.539 537.45 712.073 538.661 706.986C541.211 696.271 546.874 687.261 556.343 681.344C566.575 674.949 578.837 673.206 590.54 675.948C600.875 678.37 609.978 685.751 615.52 694.694C620.571 702.844 622.707 711.825 621.773 721.332C620.528 727.387 619.248 732.799 616.061 738.185C610.754 747.152 601.326 753.929 591.288 756.368C580.056 759.097 568.022 757.835 558.052 751.714C546.725 744.761 540.953 735.346 538.04 722.737Z"/>
	<path fill="#282083" transform="scale(0.5 0.5)" d="M1165.37 562.034C1167.5 559.228 1172.33 557.708 1175.5 556.183L1202.76 542.774C1224.76 531.047 1246.9 516.318 1264.8 498.975C1272.84 517.581 1282.05 534.852 1295.25 550.402C1308.87 566.449 1325.15 579.73 1340.04 594.496C1378.4 632.543 1409.75 677.214 1421.07 730.958C1420.37 767.075 1414.14 804.656 1386.9 830.802C1369.35 847.64 1347.6 853.776 1325.41 861.828C1316.82 864.946 1305.38 869.748 1296.48 870.684C1287.99 871.577 1278.78 870.956 1270.21 870.991C1247.18 871.086 1223.69 870.208 1200.73 871.748L1193.08 871.919C1193.08 859.36 1191.22 850.806 1185.29 839.683L1183.32 837.041L1246.04 836.995C1244.7 831.113 1241.72 825.663 1240.5 819.744C1239.71 815.923 1239.93 811.594 1240.03 807.697C1237.13 793.955 1236.71 779.614 1240.69 766.026C1245.87 748.366 1255.9 735.17 1272.31 726.448C1293.18 715.357 1315.2 716.742 1337.15 723.297L1337.58 723.221C1340.62 722.823 1343.86 724.326 1346.68 725.327C1357.6 729.199 1366.88 735.596 1377.46 739.984C1357.79 720.118 1330.08 708.06 1301.93 707.921C1289.3 707.859 1277.25 711.653 1265.86 716.856C1262.3 718.487 1257.66 720.399 1254.88 723.131L1254.55 723.504C1240.51 707.024 1232.66 689.947 1224.65 670.131C1229.63 658.533 1232.16 641.739 1232.33 629.11C1226.62 646.501 1220.35 663.642 1211.15 679.527C1199.65 699.372 1183.83 717.686 1167.64 733.801C1144.11 757.219 1116.59 779.055 1086.8 794.012C1068.81 803.043 1049.88 811.055 1030.56 816.785L986.215 828.002C984.288 810.831 978.529 799.54 965.744 787.888L961.252 785.635C964.714 783.189 971.62 782.247 975.754 781.044L1000.22 772.911C1011.85 768.552 1023.02 762.524 1033.57 756.012C1065.27 736.45 1094.14 708.058 1111.41 674.8C1121.27 655.802 1127.79 634.29 1132.74 613.51C1133.04 610.605 1134.4 601.135 1136.04 599.036L1136.5 598.51L1136.25 596.209L1135.13 595.926L1133.92 593.542C1140.04 587.082 1145.82 581.171 1154.02 577.364C1169.9 569.997 1181.81 573.792 1197.27 579.458C1191.52 574.098 1183.34 569.075 1175.98 566.255C1173.13 565.162 1168.29 564.295 1165.95 562.503L1165.37 562.034Z"/>
	<path fill="#885BDF" transform="scale(0.5 0.5)" d="M1246.04 836.995C1252.9 837.422 1280.63 838.19 1284.92 841.552L1185.29 839.683L1183.32 837.041L1246.04 836.995Z"/>
	<path fill="#885BDF" transform="scale(0.5 0.5)" d="M1240.03 807.697C1237.13 793.955 1236.71 779.614 1240.69 766.026C1245.87 748.366 1255.9 735.17 1272.31 726.448C1293.18 715.357 1315.2 716.742 1337.15 723.297C1329.74 723.826 1322.17 722.906 1314.65 723.239C1294.81 724.117 1273.26 732.412 1260.05 747.62C1247.02 762.631 1242 784.77 1243.52 804.252L1246.68 823.449C1243.46 818.768 1241.59 813.131 1240.03 807.697Z"/>
	<path fill="#885BDF" transform="scale(0.5 0.5)" d="M1132.74 613.51L1140.22 595.647C1139.08 609.448 1137.63 623.099 1134 636.508C1123.42 675.614 1097.44 714.982 1066.72 740.948C1039.14 764.262 1002.01 783.854 965.744 787.888L961.252 785.635C964.714 783.189 971.62 782.247 975.754 781.044L1000.22 772.911C1011.85 768.552 1023.02 762.524 1033.57 756.012C1065.27 736.45 1094.14 708.058 1111.41 674.8C1121.27 655.802 1127.79 634.29 1132.74 613.51Z"/>
</svg>
